# File created by Blade
# Date/Time:  Thu Jan 22 16:05:08 2015
#---------------------------------------------------------
:version 1.10
:name HOM
:units
  mass 1.0
  length 1.000000
  angle deg
:documentation
     Acclaim Skeleton File
:root
   axis xyz
   order TX TY TZ RX RY RZ
   position 0.000000 0.000000 0.000000
   orientation 0 0 0
:bonedata
   begin
      id 1
      name RightUpLeg_dum
      direction -1.000000 0.000000 0.000000
      length 3.766986
      axis 0.0 0.0 0.0 xyz
   end
   begin
      id 2
      name LeftUpLeg_dum
      direction 1.000000 0.000000 0.000000
      length 3.766986
      axis 0.0 0.0 0.0 xyz
   end
   begin
      id 3
      name Spine_dum
      direction 0.000000 1.000000 0.000000
      length 7.779697
      axis 0.0 0.0 0.0 xyz
   end
   begin
      id 4
      name RightUpLeg
      direction 0.000000 -1.000000 0.000000
      length 18.017682
      axis 0.0 0.0 0.0 xyz
      dof rx ry rz
   end
   begin
      id 5
      name RightLeg
      direction 0.000000 -1.000000 0.000000
      length 16.881075
      axis 0.0 0.0 0.0 xyz
      dof rx ry rz
   end
   begin
      id 6
      name RightFoot
      direction 0.000000 -0.258819 0.965926
      length 5.770812
      axis 15.0 0.0 0.0 xyz
      dof rx ry rz
   end
   begin
      id 7
      name RightToeBase
      direction 0.000000 0.000000 1.000000
      length 2.952750
      axis 0.0 0.0 0.0 xyz
      dof rx ry rz
   end
   begin
      id 8
      name LeftUpLeg
      direction 0.000000 -1.000000 0.000000
      length 18.017682
      axis 0.0 0.0 0.0 xyz
      dof rx ry rz
   end
   begin
      id 9
      name LeftLeg
      direction 0.000000 -1.000000 0.000000
      length 16.881075
      axis 0.0 0.0 0.0 xyz
      dof rx ry rz
   end
   begin
      id 10
      name LeftFoot
      direction 0.000000 -0.258819 0.965926
      length 5.770812
      axis 15.0 0.0 0.0 xyz
      dof rx ry rz
   end
   begin
      id 11
      name LeftToeBase
      direction 0.000000 0.000000 1.000000
      length 2.952750
      axis 0.0 0.0 0.0 xyz
      dof rx ry rz
   end
   begin
      id 12
      name Spine
      direction 0.000000 1.000000 0.000000
      length 0.000000
      axis 0.0 0.0 0.0 xyz
      dof rx ry rz
   end
   begin
      id 13
      name Spine_dum1
      direction 0.000000 1.000000 0.000000
      length 10.941760
      axis 0.0 0.0 0.0 xyz
   end
   begin
      id 14
      name Spine_dum2
      direction 0.000000 1.000000 0.000000
      length 10.941760
      axis 0.0 0.0 0.0 xyz
   end
   begin
      id 15
      name Spine_dum3
      direction 0.000000 1.000000 0.000000
      length 16.646042
      axis 0.0 0.0 0.0 xyz
   end
   begin
      id 16
      name RightShoulder
      direction -1.000000 0.000000 0.000000
      length 7.708937
      axis 0.0 0.0 90.0 xyz
      dof rx ry rz
   end
   begin
      id 17
      name RightArm
      direction -1.000000 0.000000 0.000000
      length 11.521345
      axis 0.0 0.0 90.0 xyz
      dof rx ry rz
   end
   begin
      id 18
      name RightForeArm
      direction -1.000000 0.000000 0.000000
      length 10.175898
      axis 0.0 0.0 90.0 xyz
      dof ry rz rx
   end
   begin
      id 19
      name RightHand
      direction -1.000000 0.000000 0.000000
      length 0.000000
      axis 0.0 0.0 90.0 xyz
      dof rx ry rz
   end
   begin
      id 20
      name RightHand_dum1
      direction -1.000000 0.000000 0.000000
      length 3.937000
      axis 0.0 0.0 90.0 xyz
   end
   begin
      id 21
      name RightHand_dum2
      direction 0.000000 0.000000 0.000000
      length 0.000000
      axis 0.0 0.0 90.0 xyz
   end
   begin
      id 22
      name RightHandThumb1
      direction 0.000000 0.000000 1.000000
      length 3.937000
      axis 0.0 0.0 90.0 xyz
      dof rx rz ry
   end
   begin
      id 23
      name LeftShoulder
      direction 1.000000 0.000000 0.000000
      length 7.708937
      axis 0.0 0.0 -90.0 xyz
      dof rx ry rz
   end
   begin
      id 24
      name LeftArm
      direction 1.000000 0.000000 0.000000
      length 11.521345
      axis 0.0 0.0 -90.0 xyz
      dof rx ry rz
   end
   begin
      id 25
      name LeftForeArm
      direction 1.000000 0.000000 0.000000
      length 10.175898
      axis 0.0 0.0 -90.0 xyz
      dof ry rz rx
   end
   begin
      id 26
      name LeftHand
      direction 1.000000 0.000000 0.000000
      length 0.000000
      axis 0.0 0.0 -90.0 xyz
      dof rx ry rz
   end
   begin
      id 27
      name LeftHand_dum1
      direction 1.000000 0.000000 0.000000
      length 3.937000
      axis 0.0 0.0 -90.0 xyz
   end
   begin
      id 28
      name LeftHand_dum2
      direction 0.000000 0.000000 0.000000
      length 0.000000
      axis 0.0 0.0 -90.0 xyz
   end
   begin
      id 29
      name LeftHandThumb1
      direction 0.000000 0.000000 1.000000
      length 3.937000
      axis 0.0 0.0 -90.0 xyz
      dof rx rz ry
   end
   begin
      id 30
      name Head
      direction 0.000000 1.000000 0.000000
      length 4.527550
      axis 0.0 0.0 0.0 xyz
      dof rx ry rz
   end
:hierarchy
   begin
      root RightUpLeg_dum LeftUpLeg_dum Spine_dum
      RightUpLeg_dum RightUpLeg
      LeftUpLeg_dum LeftUpLeg
      Spine_dum Spine
      RightUpLeg RightLeg
      RightLeg RightFoot
      RightFoot RightToeBase
      LeftUpLeg LeftLeg
      LeftLeg LeftFoot
      LeftFoot LeftToeBase
      Spine Spine_dum1 Spine_dum2 Spine_dum3
      Spine_dum1 RightShoulder
      Spine_dum2 LeftShoulder
      Spine_dum3 Head
      RightShoulder RightArm
      RightArm RightForeArm
      RightForeArm RightHand
      RightHand RightHand_dum1 RightHand_dum2
      RightHand_dum2 RightHandThumb1
      LeftShoulder LeftArm
      LeftArm LeftForeArm
      LeftForeArm LeftHand
      LeftHand LeftHand_dum1 LeftHand_dum2
      LeftHand_dum2 LeftHandThumb1
   end

# File created by Blade
# Date/Time:  Thu Jan 22 16:04:59 2015
# Frame Rate: 120.000 fps
#------------------------------------------------------
:FULLY-SPECIFIED
:DEGREES
573
root 1.922994 36.840753 5.640542 -5.706537 -0.384653 -0.055083
RightUpLeg 14.994569 -5.432453 -5.141858
RightLeg -5.633381 -0.000000 0.000000
RightFoot -12.096732 -14.336904 20.227965
RightToeBase 12.417697 -0.000000 -0.000000
LeftUpLeg 9.400891 -4.838133 10.836085
LeftLeg 1.063779 -0.000000 -0.000000
LeftFoot -6.392559 6.389657 -23.116836
LeftToeBase 4.672126 -0.000000 -0.000000
Spine 9.029047 0.518326 1.960140
RightShoulder 5.084844 -12.616498 -30.348724
RightArm 36.275435 11.102907 38.352106
RightForeArm 2.970312 -0.000000 60.612729
RightHand 5.419295 -0.000000 -6.231159
RightHandThumb1 -24.326973 -0.000000 -32.862282
LeftShoulder -18.150952 31.484227 15.501460
LeftArm 54.916617 -22.970375 -45.233315
LeftForeArm 28.022829 -0.000000 14.858812
LeftHand -18.769983 -0.000000 -5.269703
LeftHandThumb1 -26.253704 0.000000 33.147579
Head -1.610093 9.342568 1.120159
574
root 1.907362 36.839042 5.653457 -5.689684 0.114854 -0.046145
RightUpLeg 15.143580 -5.643370 -5.126282
RightLeg -5.730359 -0.000000 0.000000
RightFoot -12.186114 -14.559312 20.282905
RightToeBase 12.396156 -0.000000 -0.000000
LeftUpLeg 9.242076 -5.186665 10.841408
LeftLeg 1.088749 -0.000000 -0.000000
LeftFoot -6.306426 6.255276 -23.174832
LeftToeBase 4.618015 -0.000000 -0.000000
Spine 8.994797 0.947766 2.028697
RightShoulder 5.182831 -12.429784 -30.436490
RightArm 36.686103 10.950225 38.269108
RightForeArm 2.850408 -0.000000 61.111618
RightHand 5.320176 -0.000000 -6.237235
RightHandThumb1 -24.326973 -0.000000 -32.862282
LeftShoulder -18.383880 31.573559 15.382664
LeftArm 54.627741 -23.190244 -45.430199
LeftForeArm 28.140956 -0.000000 14.566397
LeftHand -18.597645 -0.000000 -5.344550
LeftHandThumb1 -26.253704 0.000000 33.147579
Head -1.817760 8.849274 1.143320
575
root 1.893892 36.837180 5.667131 -5.656255 0.615981 -0.026056
RightUpLeg 15.239863 -5.924795 -5.128278
RightLeg -5.769135 -0.000000 0.000000
RightFoot -12.347488 -14.753972 20.456279
RightToeBase 12.446193 -0.000000 -0.000000
LeftUpLeg 9.072753 -5.527206 10.835021
LeftLeg 1.098500 -0.000000 -0.000000
LeftFoot -6.227402 6.132830 -23.144195
LeftToeBase 4.683297 -0.000000 -0.000000
Spine 8.932945 1.371708 2.094586
RightShoulder 5.263773 -12.256474 -30.548982
RightArm 37.143871 10.739538 38.174847
RightForeArm 2.712632 -0.000000 61.580443
RightHand 5.377599 -0.000000 -6.334328
RightHandThumb1 -24.326973 -0.000000 -32.862282
LeftShoulder -18.631196 31.725002 15.197102
LeftArm 54.360807 -23.436851 -45.561631
LeftForeArm 28.325411 -0.000000 14.302205
LeftHand -18.667663 0.000000 -5.373420
LeftHandThumb1 -26.253704 0.000000 33.147579
Head -2.003353 8.456668 1.132394
576
root 1.883727 36.834917 5.677796 -5.622400 1.102009 0.008649
RightUpLeg 15.327791 -6.176209 -5.154484
RightLeg -5.786745 -0.000000 0.000000
RightFoot -12.471381 -14.920368 20.477236
RightToeBase 12.440760 -0.000000 -0.000000
LeftUpLeg 8.890985 -5.845455 10.812314
LeftLeg 1.131809 -0.000000 -0.000000
LeftFoot -6.136979 5.998483 -23.149788
LeftToeBase 4.681322 -0.000000 -0.000000
Spine 8.887734 1.765426 2.139436
RightShoulder 5.389327 -12.117785 -30.641201
RightArm 37.613673 10.651289 38.082273
RightForeArm 2.519629 0.000000 62.047219
RightHand 5.381128 -0.000000 -6.205122
RightHandThumb1 -24.326973 -0.000000 -32.862282
LeftShoulder -18.877916 31.798385 15.026398
LeftArm 53.939622 -23.526307 -45.467282
LeftForeArm 28.361976 -0.000000 14.024709
LeftHand -18.851596 0.000000 -5.189079
LeftHandThumb1 -26.253704 0.000000 33.147579
Head -2.189180 7.940153 1.089811
577
root 1.874926 36.832831 5.694780 -5.595685 1.549986 0.047270
RightUpLeg 15.439151 -6.328544 -5.181619
RightLeg -5.814270 -0.000000 0.000000
RightFoot -12.559792 -15.090493 20.431168
RightToeBase 12.361781 -0.000000 -0.000000
LeftUpLeg 8.750155 -6.127445 10.783597
LeftLeg 1.139752 -0.000000 -0.000000
LeftFoot -6.045993 5.878497 -23.128186
LeftToeBase 4.635406 -0.000000 -0.000000
Spine 8.835834 2.227009 2.188189
RightShoulder 5.480913 -11.998911 -30.760678
RightArm 38.069431 10.515815 38.045929
RightForeArm 2.462946 -0.000000 62.556958
RightHand 5.251128 -0.000000 -6.220545
RightHandThumb1 -24.326973 -0.000000 -32.862282
LeftShoulder -19.062452 31.861982 14.891961
LeftArm 53.551048 -23.752718 -45.575811
LeftForeArm 28.598005 -0.000000 13.774475
LeftHand -18.676084 -0.000000 -5.390513
LeftHandThumb1 -26.253704 0.000000 33.147579
Head -2.351617 7.490143 1.076576
578
root 1.866449 36.831657 5.710008 -5.578390 2.036997 0.076802
RightUpLeg 15.533319 -6.575081 -5.199332
RightLeg -5.813660 -0.000000 0.000000
RightFoot -12.713999 -15.280248 20.536182
RightToeBase 12.342584 -0.000000 -0.000000
LeftUpLeg 8.592314 -6.449693 10.761391
LeftLeg 1.169788 -0.000000 -0.000000
LeftFoot -5.962598 5.748902 -23.141201
LeftToeBase 4.672541 -0.000000 -0.000000
Spine 8.816463 2.575532 2.236872
RightShoulder 5.638771 -11.825201 -30.886969
RightArm 38.499407 10.408385 38.025181
RightForeArm 2.326456 -0.000000 63.077598
RightHand 5.300904 -0.000000 -6.235957
RightHandThumb1 -24.326973 -0.000000 -32.862282
LeftShoulder -19.367304 31.955232 14.663810
LeftArm 53.136634 -23.902635 -45.520167
LeftForeArm 28.752923 -0.000000 13.527216
LeftHand -18.546428 -0.000000 -5.341194
LeftHandThumb1 -26.253704 0.000000 33.147579
Head -2.553472 7.095011 1.045576
579
root 1.860178 36.829653 5.724631 -5.542776 2.548137 0.115647
RightUpLeg 15.630078 -6.877396 -5.243489
RightLeg -5.828881 -0.000000 0.000000
RightFoot -12.831805 -15.419063 20.595541
RightToeBase 12.304662 -0.000000 -0.000000
LeftUpLeg 8.410260 -6.806440 10.722678
LeftLeg 1.199156 -0.000000 -0.000000
LeftFoot -5.872640 5.634922 -23.172552
LeftToeBase 4.551953 -0.000000 -0.000000
Spine 8.779103 2.954321 2.266780
RightShoulder 5.732108 -11.723828 -30.993121
RightArm 38.973770 10.312480 38.000716
RightForeArm 2.011356 -0.000000 63.610799
RightHand 5.164052 -0.000000 -6.200477
RightHandThumb1 -24.326973 -0.000000 -32.862282
LeftShoulder -19.607776 32.045900 14.495488
LeftArm 52.776178 -24.151133 -45.674969
LeftForeArm 29.000535 -0.000000 13.355990
LeftHand -18.578982 0.000000 -5.410742
LeftHandThumb1 -26.253704 0.000000 33.147579
Head -2.766022 6.704539 1.062472
580
root 1.856347 36.828178 5.734588 -5.505268 3.030275 0.144757
RightUpLeg 15.699025 -7.116973 -5.270553
RightLeg -5.819179 -0.000000 0.000000
RightFoot -12.938439 -15.590283 20.615068
RightToeBase 12.257093 -0.000000 -0.000000
LeftUpLeg 8.223373 -7.152776 10.689054
LeftLeg 1.240911 -0.000000 -0.000000
LeftFoot -5.821815 5.553233 -23.153650
LeftToeBase 4.582693 -0.000000 -0.000000
Spine 8.754789 3.338911 2.327965
RightShoulder 5.832193 -11.648965 -31.141464
RightArm 39.447956 10.241864 38.032451
RightForeArm 1.835460 -0.000000 64.149389
RightHand 5.095111 -0.000000 -6.516165
RightHandThumb1 -24.326973 -0.000000 -32.862282
LeftShoulder -19.875790 32.124556 14.277236
LeftArm 52.443022 -24.395276 -45.777417
LeftForeArm 29.233537 -0.000000 13.089938
LeftHand -18.480269 0.000000 -5.562942
LeftHandThumb1 -26.253704 0.000000 33.147579
Head -2.973355 6.316775 1.028348
581
root 1.851030 36.827168 5.755012 -5.501436 3.428248 0.203212
RightUpLeg 15.803981 -7.323327 -5.331670
RightLeg -5.807516 -0.000000 0.000000
RightFoot -13.041849 -15.705842 20.611107
RightToeBase 12.142614 -0.000000 -0.000000
LeftUpLeg 8.140552 -7.374352 10.636373
LeftLeg 1.218494 -0.000000 -0.000000
LeftFoot -5.720985 5.452320 -23.142905
LeftToeBase 4.598115 -0.000000 -0.000000
Spine 8.756607 3.759531 2.347860
RightShoulder 6.000746 -11.492158 -31.274884
RightArm 39.899340 10.151837 38.024302
RightForeArm 1.500157 0.000000 64.681491
RightHand 5.176694 -0.000000 -6.241419
RightHandThumb1 -24.326973 -0.000000 -32.862282
LeftShoulder -20.195391 32.236856 14.041119
LeftArm 52.117824 -24.636024 -45.906867
LeftForeArm 29.435122 -0.000000 12.882680
LeftHand -18.696188 -0.000000 -5.764759
LeftHandThumb1 -26.253704 0.000000 33.147579
Head -3.150971 5.989237 0.992733
582
root 1.849957 36.826268 5.768094 -5.495095 3.908295 0.247026
RightUpLeg 15.928837 -7.530753 -5.374402
RightLeg -5.841134 -0.000000 0.000000
RightFoot -13.131114 -15.919643 20.645384
RightToeBase 12.068428 -0.000000 -0.000000
LeftUpLeg 8.008594 -7.740294 10.578036
LeftLeg 1.231374 -0.000000 -0.000000
LeftFoot -5.643687 5.373092 -23.182382
LeftToeBase 4.547030 -0.000000 -0.000000
Spine 8.791250 4.198719 2.395669
RightShoulder 6.057395 -11.378063 -31.398204
RightArm 40.307958 10.052363 38.023213
RightForeArm 1.255207 -0.000000 65.267630
RightHand 5.058238 -0.000000 -6.212168
RightHandThumb1 -24.326973 -0.000000 -32.862282
LeftShoulder -20.389015 32.303416 13.876593
LeftArm 51.829411 -24.937162 -46.137319
LeftForeArm 29.615000 0.000000 12.596404
LeftHand -18.671684 -0.000000 -5.523832
LeftHandThumb1 -26.253704 0.000000 33.147579
Head -3.388185 5.567382 0.950769
583
root 1.847073 36.825075 5.785767 -5.468518 4.389945 0.293247
RightUpLeg 16.040703 -7.830489 -5.434158
RightLeg -5.866958 -0.000000 0.000000
RightFoot -13.214147 -16.040132 20.675917
RightToeBase 12.045836 -0.000000 -0.000000
LeftUpLeg 7.863786 -8.041177 10.534242
LeftLeg 1.239281 -0.000000 -0.000000
LeftFoot -5.544333 5.252313 -23.148477
LeftToeBase 4.502030 -0.000000 -0.000000
Spine 8.773822 4.531284 2.414153
RightShoulder 6.185660 -11.263931 -31.542237
RightArm 40.755016 9.949215 38.053399
RightForeArm 0.931779 -0.000000 65.767955
RightHand 5.180075 -0.000000 -6.293206
RightHandThumb1 -24.326973 -0.000000 -32.862282
LeftShoulder -20.746708 32.465592 13.598409
LeftArm 51.571382 -25.207093 -46.263627
LeftForeArm 29.697282 -0.000000 12.339452
LeftHand -18.793300 -0.000000 -5.632043
LeftHandThumb1 -26.253704 0.000000 33.147579
Head -3.567628 5.244228 0.921451
